<svg width="45" height="45" viewBox="0 0 45 45" fill="none" xmlns="http://www.w3.org/2000/svg">
<g clip-path="url(#clip0_1090_11598)">
<path fill-rule="evenodd" clip-rule="evenodd" d="M2.25 9C1.0125 9 0 10.0125 0 11.25V40.5C0 42.975 2.025 45 4.5 45H33.75C34.9875 45 36 43.9875 36 42.75C36 41.5125 34.9875 40.5 33.75 40.5H6.75C5.5125 40.5 4.5 39.4875 4.5 38.25V11.25C4.5 10.0125 3.4875 9 2.25 9ZM40.5 0H13.5C11.025 0 9 2.025 9 4.5V31.5C9 33.975 11.025 36 13.5 36H40.5C42.975 36 45 33.975 45 31.5V4.5C45 2.025 42.975 0 40.5 0ZM36 20.25H29.25V27C29.25 28.2375 28.2375 29.25 27 29.25C25.7625 29.25 24.75 28.2375 24.75 27V20.25H18C16.7625 20.25 15.75 19.2375 15.75 18C15.75 16.7625 16.7625 15.75 18 15.75H24.75V9C24.75 7.7625 25.7625 6.75 27 6.75C28.2375 6.75 29.25 7.7625 29.25 9V15.75H36C37.2375 15.75 38.25 16.7625 38.25 18C38.25 19.2375 37.2375 20.25 36 20.25Z" fill="#D0936A"/>
</g>
<defs>
<clipPath id="clip0_1090_11598">
<rect width="45" height="45" fill="white"/>
</clipPath>
</defs>
</svg>
