<svg width="29" height="29" fill="none" xmlns="http://www.w3.org/2000/svg"><path d="M29 2.41667V29H0V2.41667h3.625V3.625c0 1.33279 1.08388 2.41667 2.41667 2.41667S8.45833 4.95779 8.45833 3.625V2.41667H20.5417V3.625c0 1.33279 1.0838 2.41667 2.4166 2.41667 1.3328 0 2.4167-1.08388 2.4167-2.41667V2.41667H29Zm-2.4167 7.25H2.41667V26.5833H26.5833V9.66667Zm-2.4166-8.45834C24.1667.541333 23.6265 0 22.9583 0 22.2901 0 21.75.541333 21.75 1.20833V3.625c0 .667.5401 1.20833 1.2083 1.20833.6682 0 1.2084-.54133 1.2084-1.20833V1.20833ZM7.25 3.625c0 .667-.54012 1.20833-1.20833 1.20833-.66821 0-1.20834-.54133-1.20834-1.20833V1.20833C4.83333.541333 5.37346 0 6.04167 0S7.25.541333 7.25 1.20833V3.625Zm8.0801 16.2908c0-.9691-.5051-1.7268-1.34-2.0482.638-.319 1.0101-.9751 1.0101-1.8161 0-1.6264-1.5853-2.5967-3.1187-2.5967-1.7847 0-3.13075 1.1177-3.21292 3.3386h1.98772c-.0169-.9195.3275-1.5889 1.2385-1.5889.5426 0 1.1274.3286 1.1274 1.05 0 .9111-.986 1.0416-1.8934.963v1.5467c1.2892 0 2.0589.081 2.0589 1.1902 0 .8749-.6621 1.2664-1.3182 1.2664-.9933 0-1.4005-.742-1.4355-1.7545H8.45954c-.03866 2.2861 1.34609 3.492 3.43406 3.492 1.8645 0 3.4365-1.1394 3.4365-3.0425Zm5.2116 3.0425v-9.3259h-1.682c-.2091 1.3944-1.2023 1.8016-2.6233 1.763v1.6264h2.2378v5.9365h2.0675Z" fill="#D0936A"/></svg>