<svg width="28" height="28" fill="none" xmlns="http://www.w3.org/2000/svg"><path fill-rule="evenodd" clip-rule="evenodd" d="M17.3541.110017c-.1406.069858-1.5672 1.457613-3.9927 3.884053l-3.77397 3.7754 5.31907 5.31993 5.319 5.3199 3.7752-3.7746c2.5167-2.5162 3.8113-3.8486 3.8835-3.9969.2557-.5253.1343-.78085-.8359-1.75952-.8124-.81948-1.0722-.99989-1.4387-.99902-.2742.00066-.4419.09918-2.0749 1.21828-.722.49475-1.3203.89328-1.3297.88551-.0094-.00771.4521-.71915 1.0255-1.58092.9793-1.47178 1.0426-1.58228 1.0426-1.82107 0-.14125-.0479-.35328-.1079-.4773-.1485-.30667-3.2409-3.387-3.5156-3.50177-.2913-.12177-.4907-.10503-.9189.07724l-.3795.16155.0888-.20258c.3745-.85399.3339-1.00957-.4832-1.849569-.7582-.77938042-1.1045-.926044-1.6027-.678614ZM7.06217 10.2995c-.60472.6092-1.13926 1.1865-1.18789 1.2828-.11338.2246-.11322.6293.00033.8534.04879.0963.62621.7174 1.28311 1.3802 1.38807 1.4005 1.43998 1.4803 1.44304 2.2139.0017.3983-.01947.5087-.14757.7696-.08226.1675-.24055.3955-.35174.5067-.11115.1112-.85611.6242-1.65538 1.14-3.38737 2.1858-5.07556 3.3562-5.533258 3.8361-1.249365 1.3101-1.211515 3.4223.08456 4.7186 1.091838 1.092 2.804538 1.3159 4.114778.538.67648-.4017 1.03895-.8447 2.5764-3.1487.50845-.762 1.34645-2.0395 1.86212-2.8389.51563-.7994 1.02853-1.5445 1.13973-1.6557.1112-.1112.3392-.2695.5067-.3518.2625-.1289.3687-.149.7694-.1454.739.0065.8191.0587 2.2152 1.4427.6618.6562 1.2821 1.2329 1.3784 1.2817.283.1435.6647.1156.9492-.0693.1337-.087.7106-.6287 1.282-1.2038l1.0389-1.0456-5.3051-5.3062c-2.9178-2.9184-5.31815-5.30611-5.33423-5.30611-.01608 0-.52398.49852-1.1287 1.10781Zm-2.9445 13.111c.31193.1727.59252.5748.6494.9306.08194.5125-.18979 1.0776-.64705 1.3457-.9201.5392-2.09168-.2069-1.98268-1.2628.10086-.9775 1.11137-1.4946 1.98033-1.0135Z" fill="#D0936A"/></svg>