<svg width="30" height="31" fill="none" xmlns="http://www.w3.org/2000/svg"><path fill-rule="evenodd" clip-rule="evenodd" d="M6.41654.436974C6.06058.79465 5.76923 1.55696 5.76923 2.13086c0 .77274-.44885 1.04346-1.73077 1.04346C1.81788 3.17432 0 5.00096 0 7.23224v1.7391h30v-1.7391c0-2.23128-1.8179-4.05792-4.0385-4.05792-1.2819 0-1.7307-.27072-1.7307-1.04346 0-.5739-.2914-1.33621-.6473-1.693886-.975-.979696-2.2373-.217968-2.2373 1.350126 0 1.37911-.037 1.38722-6.3462 1.38722-6.30923 0-6.34615-.00811-6.34615-1.38722 0-1.568094-1.26231-2.329822-2.23731-1.350126ZM0 19.9434v8.6537l1.52019 1.2012C2.94692 30.9264 3.77423 31 15 31c11.2258 0 12.0531-.0736 13.4798-1.2017L30 28.5971V11.2901H0v8.6533Zm17.6354-4.3264c4.2969 1.8041 4.6892 8.2967.6508 10.7709-2.3175 1.4197-4.2352 1.4319-6.5054.0412-4.05926-2.4875-3.86945-8.535.3346-10.6451 2.4548-1.2325 2.9469-1.2475 5.52-.167Zm-3.7892 4.0585c0 2.5264.9484 3.7884 2.8465 3.7884.7783 0 .8094-2.1298.0381-2.6087-.3173-.1971-.577-1.1252-.577-2.0631 0-1.3183-.2613-1.7049-1.1538-1.7049-.9813 0-1.1538.3866-1.1538 2.5883Z" fill="#D0936A"/></svg>