<svg width="23" height="16" fill="none" xmlns="http://www.w3.org/2000/svg"><path fill-rule="evenodd" clip-rule="evenodd" d="M19.6694.23235c-.2967.13613-3.0679 2.50353-6.1581 5.261L7.89258 10.507 5.59662 8.45943C3.37457 6.47775 3.27603 6.41186 2.53427 6.41186c-.66714 0-.86998.09257-1.564807.71343C.10776 7.89546-.129964 8.41266.0626244 9.09845.201087 9.59138 6.59175 15.4552 7.40562 15.836c.27693.1297.64161.1964.81046.1485.16885-.0479 3.56332-3.0008 7.54352-6.5622 7.7476-6.93248 7.5917-6.75826 6.9828-7.79989-.3406-.5826-1.1607-1.258913-1.7809-1.46833-.6431-.2171324-.6483-.2168111-1.2921.07827Z" fill="#fff"/></svg>