<svg width="27" height="18" fill="none" xmlns="http://www.w3.org/2000/svg"><path fill-rule="evenodd" clip-rule="evenodd" d="M23.0902.261394c-.3483.153146-3.6015 2.816466-7.2291 5.918616L9.2652 11.8204 6.56995 9.51685c-2.6085-2.22938-2.72418-2.30351-3.59494-2.30351-.78316 0-1.02128.10415-1.83694.80261C.1265 8.88239-.152567 9.46424.0735156 10.2358c.1625424.5545 7.6646344 7.1513 8.6200444 7.5797.32509.1459.75319.2209.9514.167.19822-.0538 4.18304-3.3759 8.85544-7.3824 9.095-7.79905 8.912-7.60306 8.1972-8.77488-.3998-.65544-1.3626-1.416285-2.0907-1.65188-.7549-.244274-.761-.2439125-1.5167.088054Z" fill="#D0936A"/></svg>