<svg width="28" height="28" fill="none" xmlns="http://www.w3.org/2000/svg"><path fill-rule="evenodd" clip-rule="evenodd" d="M23.98.16 22.97.08l-4.61 4.5-4.61 4.49-4.61-4.5L4.54.09 3.51.16c-.8.06-1.23.3-2.07 1.14C-.81 3.56-.62 4.02 4.84 9.48l4.25 4.25-4.5 4.62-4.5 4.62.07 1c.06.8.3 1.23 1.14 2.08 2.26 2.26 2.72 2.07 8.19-3.4l4.26-4.26L18 22.65c5.47 5.47 5.93 5.66 8.19 3.4.84-.85 1.08-1.27 1.14-2.07l.07-1.01-4.5-4.62-4.5-4.62 4.25-4.25c5.46-5.46 5.65-5.92 3.39-8.18C25.2.45 24.78.22 23.98.16Z" fill="#AE6636"/></svg>