<svg width="18" height="18" fill="none" xmlns="http://www.w3.org/2000/svg"><path fill-rule="evenodd" clip-rule="evenodd" d="m15.6117.214691-.6522-.04925-2.9798 2.904479L9 5.97439 6.02027 3.06992 3.04055.165441l-.65225.04925c-.51862.039125-.79324.190249-1.34099.737994C-.412923 2.41292-.289924 2.70992 3.23742 6.23727l2.74973 2.74972-2.91072 2.98621-2.910858 2.9861.049249.6523c.039125.5186.190249.7932.737994 1.341C2.41355 18.4133 2.7093 18.2905 6.24377 14.7561L9 11.9998l2.7562 2.7563c3.5345 3.5344 3.8302 3.6572 5.291 2.1965.5477-.5478.6989-.8224.738-1.341l.0492-.6523-2.9108-2.9861-2.9107-2.98621 2.7497-2.74972c3.5273-3.52735 3.6503-3.82435 2.1901-5.284585-.5478-.547745-.8224-.698869-1.341-.737994Z" fill="#fff"/></svg>