<svg width="35" height="35" fill="none" xmlns="http://www.w3.org/2000/svg"><path d="M29.1667 29.1667h-5.8334v-5.8334h5.8334v5.8334Zm-8.75-14.5834h-5.8334v5.8334h5.8334v-5.8334Zm8.75 0h-5.8334v5.8334h5.8334v-5.8334Zm-17.5 8.75H5.83333v5.8334h5.83337v-5.8334Zm8.75 0h-5.8334v5.8334h5.8334v-5.8334Zm-8.75-8.75H5.83333v5.8334h5.83337v-5.8334ZM35 2.91667V35H0V2.91667h4.375V4.375c0 1.60854 1.30813 2.91667 2.91667 2.91667 1.60854 0 2.91663-1.30813 2.91663-2.91667V2.91667h14.5834V4.375c0 1.60854 1.3081 2.91667 2.9166 2.91667 1.6086 0 2.9167-1.30813 2.9167-2.91667V2.91667H35Zm-2.9167 8.75003H2.91667v20.4166H32.0833V11.6667ZM29.1667 1.45833C29.1667.653333 28.5148 0 27.7083 0 26.9019 0 26.25.653333 26.25 1.45833V4.375c0 .805.6519 1.45833 1.4583 1.45833.8065 0 1.4584-.65333 1.4584-1.45833V1.45833ZM8.75 4.375c0 .805-.65187 1.45833-1.45833 1.45833S5.83333 5.18 5.83333 4.375V1.45833C5.83333.653333 6.48521 0 7.29167 0S8.75.653333 8.75 1.45833V4.375Z" fill="#fff"/></svg>