<svg width="29" height="29" fill="none" xmlns="http://www.w3.org/2000/svg"><path d="M24.1667 24.1667h-4.8334v-4.8334h4.8334v4.8334Zm-7.25-12.0834h-4.8334v4.8334h4.8334v-4.8334Zm7.25 0h-4.8334v4.8334h4.8334v-4.8334Zm-14.50003 7.25H4.83333v4.8334h4.83334v-4.8334Zm7.25003 0h-4.8334v4.8334h4.8334v-4.8334Zm-7.25003-7.25H4.83333v4.8334h4.83334v-4.8334ZM29 2.41667V29H0V2.41667h3.625V3.625c0 1.33279 1.08388 2.41667 2.41667 2.41667S8.45833 4.95779 8.45833 3.625V2.41667H20.5417V3.625c0 1.33279 1.0838 2.41667 2.4166 2.41667 1.3328 0 2.4167-1.08388 2.4167-2.41667V2.41667H29Zm-2.4167 7.25H2.41667V26.5833H26.5833V9.66667Zm-2.4166-8.45834C24.1667.541333 23.6265 0 22.9583 0 22.2901 0 21.75.541333 21.75 1.20833V3.625c0 .667.5401 1.20833 1.2083 1.20833.6682 0 1.2084-.54133 1.2084-1.20833V1.20833ZM7.25 3.625c0 .667-.54012 1.20833-1.20833 1.20833-.66821 0-1.20834-.54133-1.20834-1.20833V1.20833C4.83333.541333 5.37346 0 6.04167 0S7.25.541333 7.25 1.20833V3.625Z" fill="#D0936A"/></svg>