<svg width="18" height="21" fill="none" xmlns="http://www.w3.org/2000/svg"><path fill-rule="evenodd" clip-rule="evenodd" d="M15.3 21H2.7c-.9936 0-1.8-.784-1.8-1.75v-14h16.2v14c0 .966-.8064 1.75-1.8 1.75ZM7.2 8.75c0-.483-.4032-.875-.9-.875s-.9.392-.9.875v7.875c0 .483.4032.875.9.875s.9-.392.9-.875V8.75Zm5.4 0c0-.483-.4032-.875-.9-.875s-.9.392-.9.875v7.875c0 .483.4032.875.9.875s.9-.392.9-.875V8.75ZM18 4.375H0v-1.75h5.4V1.3125C5.4.588875 6.0057 0 6.75 0h4.5c.7425 0 1.35.587125 1.35 1.3125V2.625H18v1.75ZM7.2 2.625h3.6V1.75H7.2v.875Z" fill="#fff"/></svg>