<svg width="32" height="31" fill="none" xmlns="http://www.w3.org/2000/svg"><path d="M8.14882 8.34766H1.03845C.463001 8.34766 0 8.81066 0 9.3861v20.544c0 .5755.463001 1.0385 1.03845 1.0385h7.11037c.57545 0 1.03845-.463 1.03845-1.0385V9.3861c.00661-.57544-.463-1.03844-1.03845-1.03844ZM7.11038 28.8917H2.07689V10.4245h5.03349v18.4672ZM30.9613 13.7979h-7.1104c-.5754 0-1.0384.463-1.0384 1.0384v15.0938c0 .5755.463 1.0385 1.0384 1.0385h7.1104c.5755 0 1.0385-.463 1.0385-1.0385V14.8363c0-.5754-.463-1.0384-1.0385-1.0384Zm-6.0719 2.0768h1.6139l-1.6139 1.6139v-1.6139Zm0 3.2675 3.2608-3.2608h1.647l-4.9078 4.9078v-1.647Zm5.0335 9.7495h-1.6205l1.6205-1.6205v1.6205Zm0-3.2675-3.2675 3.2675h-1.647l4.9079-4.9078v1.6403h.0066Zm0-3.2873-5.0335 5.0335v-1.647l5.0335-5.0334v1.6469Zm0-3.2939-5.0335 5.0335v-1.647l5.0335-5.0335v1.647ZM19.5583 0h-7.117c-.5755 0-1.0385.463001-1.0385 1.03845V29.9297c0 .5755.463 1.0385 1.0385 1.0385h7.1103c.5755 0 1.0385-.463 1.0385-1.0385V1.03845C20.5967.463001 20.1337 0 19.5583 0Z" fill="#FCE4D2"/></svg>