<svg width="37" height="36" fill="none" xmlns="http://www.w3.org/2000/svg"><path d="M9.42239 9.69189H1.20074C.535363 9.69189 0 10.2272 0 10.8926v23.7548c0 .6654.535363 1.2008 1.20074 1.2008h8.22165c.66541 0 1.20071-.5354 1.20071-1.2008V10.8926c.0077-.6654-.5353-1.20071-1.20071-1.20071ZM8.22164 33.4467H2.40148V12.0934h5.82016v21.3533ZM35.7986 15.9936h-8.2217c-.6653 0-1.2007.5354-1.2007 1.2007v17.4529c0 .6654.5354 1.2007 1.2007 1.2007h8.2217c.6654 0 1.2007-.5353 1.2007-1.2007V17.1943c0-.6653-.5353-1.2007-1.2007-1.2007Zm-7.0209 2.4015h1.8661l-1.8661 1.8661v-1.8661Zm0 3.7781 3.7705-3.7705h1.9043l-5.6748 5.6749v-1.9044Zm5.8201 11.2732h-1.8737l1.8737-1.8737v1.8737Zm0-3.7781-3.7781 3.7781h-1.9043l5.6748-5.6748v1.8967h.0076Zm0-3.8011-5.8201 5.8202V29.783l5.8201-5.8201v1.9043Zm0-3.8087-5.8201 5.8202v-1.9044l5.8201-5.8202v1.9044ZM22.6142.0390625h-8.2293c-.6653 0-1.2007.5353625-1.2007 1.2007475V34.6465c0 .6653.5354 1.2007 1.2007 1.2007h8.2217c.6654 0 1.2007-.5354 1.2007-1.2007V1.23981C23.815.574425 23.2796.0390625 22.6142.0390625Z" fill="#5F7D8A"/></svg>