<svg width="37" height="35" fill="none" xmlns="http://www.w3.org/2000/svg"><path fill-rule="evenodd" clip-rule="evenodd" d="M2.09875.490743C.972434 1.06984-.00028924 2.60587.00115697 3.8021.00173546 4.28041.256269 5.10666.566916 5.63778 1.70653 7.58844 1.2368 7.53865 18.5694 7.53744c15.0672-.00091 15.7435-.02505 16.6317-.59027C36.9644 5.82578 37.4873 3.71579 36.44 1.948 35.2627-.0394721 35.567-.0062772 18.4679.00126712 4.91944.00730257 2.92251.0670536 2.09875.490743ZM1.66488 14.4055C.798888 14.9656 0 16.4491 0 17.4971c0 1.0753.814507 2.553 1.71232 3.1065.76042.4686 2.27142.5148 16.79918.5148 17.7179 0 17.1371.064 18.0731-1.9938.5539-1.2176.5539-2.0373 0-3.2549-.9366-2.0593-.3483-1.9947-18.1176-1.9857-14.56049.0073-16.08017.0543-16.80212.5215Zm.15706 13.6416C.0587162 29.1685-.464235 31.2785.583113 33.0463 1.75975 35.0323 1.46241 35 18.5115 35c17.0492 0 16.7518.0323 17.9285-1.9537 1.0473-1.7678.5244-3.8778-1.2389-4.9992-.8882-.5652-1.5639-.5893-16.6896-.5893-15.12562 0-15.8013.0241-16.68956.5893Z" fill="#5F7D8A"/></svg>