<svg width="35" height="31" fill="none" xmlns="http://www.w3.org/2000/svg"><path fill-rule="evenodd" clip-rule="evenodd" d="M12.928.10859c-.4165.206913-.5247.451654-.5509 1.24623l-.0233.70625H9.68717c-2.94735 0-2.97893.0042-3.28676.43912-.14656.20712-.15326.28277-.17281 1.95523L6.20722 6.1952H35l-.0204-1.73978c-.0301-2.57274.2281-2.39435-3.4658-2.39435H28.841v-.62694c0-1.006937-.2909-1.4056736-1.0254-1.4056736-.7345 0-1.0254.3987366-1.0254 1.4056736v.62694h-5.1954v-.62694c0-1.006937-.2908-1.4056736-1.0254-1.4056736-.7345 0-1.0254.3987366-1.0254 1.4056736v.62694h-5.127l-.0011-.63734c-.0009-.532205-.0263-.681653-.1538-.905792-.2706-.4757701-.8454-.65216-1.3341-.409348ZM6.12013 9.13237C5.8484 14.255 3.74981 19.4904.71325 22.6211c-.326967.3371-.6227616.688-.6573518.7797-.1683712.4463.0583108 1.0425.4828968 1.2703.22969.1232.726805.1277 13.862805.1277 13.3126 0 13.6304-.003 13.8782-.1326.1394-.0729.4728-.3597.7408-.6373 1.8849-1.9529 3.5718-4.8582 4.567-7.8662.7155-2.1625 1.2106-4.793 1.3152-6.98748l.0435-.91295H6.16628l-.04615.8701ZM34.7945 18.845c-.9261 2.2892-2.677 4.9769-4.3215 6.6339-.7399.7455-1.0805.9986-1.6205 1.2047l-.3875.1478-11.1256.0183-11.12561.0182v1.6554c0 1.5231.011 1.6771.13761 1.9273.08859.1751.23379.3214.40749.4107.2677.1376.37441.1387 13.84471.1387s13.577-.0011 13.8447-.1387c.1739-.0894.3189-.2356.4079-.4115.1357-.268.1377-.3723.1206-6.1423l-.0175-5.8697-.1648.4072Z" fill="#fff"/></svg>