<svg width="35" height="35" fill="none" xmlns="http://www.w3.org/2000/svg"><path d="M35 19.857v-4.714c-2.408-.856-3.929-1.096-4.694-2.944v-.002c-.769-1.853.145-3.112 1.235-5.406L28.209 3.46c-2.277 1.082-3.549 2.005-5.407 1.235h-.001c-1.85-.767-2.093-2.298-2.944-4.694h-4.714c-.848 2.384-1.092 3.926-2.944 4.694h-.002c-1.853.77-3.109-.143-5.406-1.235L3.46 6.791c1.087 2.287 2.005 3.55 1.235 5.406-.768 1.854-2.31 2.098-4.694 2.946v4.714c2.38.846 3.926 1.092 4.694 2.944.773 1.87-.166 3.159-1.235 5.406l3.332 3.334c2.278-1.084 3.55-2.005 5.406-1.235h.002c1.852.767 2.094 2.302 2.944 4.694h4.714c.848-2.386 1.093-3.923 2.956-4.699h.001c1.84-.764 3.092.148 5.393 1.241l3.332-3.334c-1.085-2.279-2.005-3.548-1.236-5.404.768-1.854 2.315-2.1 4.697-2.947Zm-17.5 3.476a5.833 5.833 0 1 1 0-11.667 5.833 5.833 0 0 1 0 11.667Z" fill="#5F7D8A"/></svg>