<svg width="51" height="47" fill="none" xmlns="http://www.w3.org/2000/svg"><path fill-rule="evenodd" clip-rule="evenodd" d="M25.8016.178373c-.6478.412868-.6176-.1313615-.6176 11.134927v10.2322l.2265.3412c.4928.7427-.2677.697 11.114.6683 10.1868-.0257 10.1935-.0258 10.4749-.2371.1549-.1162.3685-.3608.4747-.5433.1807-.3107.1857-.4069.0774-1.496-.357-3.5867-1.5622-7.0344-3.5316-10.1022-2.0504-3.19409-5.3873-6.19062-8.8099-7.91119C32.8342 1.07079 29.5804.159392 27.2252.0285316c-.9979-.0554374-1.1223-.042281-1.4236.1498414ZM20.4953 1.76165c-.9887.08035-2.9119.4429-4.1131.77542C8.52633 4.71169 2.28033 11.3431.501698 19.3976c-.4029324 1.8247-.50229388 2.8134-.50169532 4.9896C.0010003 28.164.654232 31.0106 2.29599 34.3927c1.81305 3.7348 4.78771 7.0308 8.37081 9.2749 6.7097 4.2024 15.498 4.4493 22.4981.632 1.6348-.8915 4.0287-2.6421 4.4137-3.2275.2801-.426.2304-1.1138-.114-1.5802-.1591-.2154-3.5289-3.6456-7.4885-7.6226-3.9595-3.977-7.2636-7.353-7.3423-7.5021-.1218-.2307-.1436-1.8532-.1455-10.8465-.0021-10.25722-.008-10.58823-.1961-11.00552-.1481-.32841-.2951-.47644-.6213-.62548-.2351-.10736-.4947-.1883-.577-.17987-.0823.00844-.3517.03174-.5986.05182Zm10.824 23.92655c-.3252.1354-.6593.5621-.7471.954-.1852.8265-.3259.6621 6.2183 7.2683 3.3555 3.3874 6.3175 6.3432 6.5821 6.5685.3811.3245.5781.4177.9477.4487.6161.0515.8412-.0833 1.544-.9246 2.8289-3.3862 4.5583-7.5549 5.0656-12.2109.1039-.9528.098-1.1025-.0562-1.4296-.0947-.2009-.3187-.4565-.4975-.5677-.3204-.1994-.4698-.2024-9.5914-.1962-5.0963.0035-9.3557.0438-9.4655.0895Z" fill="#D0936A"/></svg>