<svg width="47" height="47" fill="none" xmlns="http://www.w3.org/2000/svg"><path fill-rule="evenodd" clip-rule="evenodd" d="M18.7219.0645586c-.576.1407104-1.082.5561384-1.362 1.1181814l-.2624.52682V45.2818l.2795.5352c.2036.3898.4123.6174.7676.8372l.4879.3017h9.7359l.4879-.3017c.3553-.2198.564-.4474.7676-.8372l.2795-.5352V1.69304l-.2795-.53522c-.2035-.389607-.4124-.617486-.7674-.83716l-.4878-.3017373-4.6602-.01711347c-2.563-.00940742-4.8071.01881467-4.9866.06274937ZM35.5059 10.8368c-.4522.196-.8696.5956-1.1097 1.0625-.1855.361-.1909.832-.1909 16.8915 0 14.6847.0173 16.5614.1549 16.8909.1981.4744.4933.7883.9957 1.0587.3906.2103.5104.2162 4.9885.2443 5.3307.0337 5.3795.0277 6.053-.7377.2832-.3218.436-.6117.5142-.9754.0797-.371.1025-5.1202.0804-16.7881l-.0308-16.2707-.3016-.4881c-.2197-.3553-.4474-.5642-.8369-.7678l-.5351-.2796-4.7157.0039c-3.9872.0033-4.7699.0274-5.066.1556ZM1.17822 23.767c-.38958.2036-.617185.4125-.836886.7677l-.3016377.4881-.0313143 9.8657C-.0145285 42.144.0080819 44.8973.0941213 45.295c.0935427.4327.2115967.6355.5910707 1.0152.706428.7066.785358.7154 6.057578.6778l4.50203-.0321.4458-.2502c.2451-.1376.5828-.4454.7504-.6841l.3045-.434.0264-10.2506c.0256-9.9441.0206-10.262-.1659-10.6249-.247-.4802-.663-.8729-1.1329-1.0693-.3183-.133-1.0485-.1554-5.06589-.1554H1.71326l-.53504.2796Z" fill="#D0936A"/></svg>