<svg width="32" height="24" fill="none" xmlns="http://www.w3.org/2000/svg"><g clip-path="url(#a)" fill="#FFE0CC"><path d="M31.33 12a2.4 2.4 0 0 1-2.4 2.4H9.73a2.4 2.4 0 0 1 0-4.8h19.2a2.4 2.4 0 0 1 2.4 2.4ZM31.33 2.4a2.4 2.4 0 0 1-2.4 2.4H9.73a2.4 2.4 0 0 1 0-4.8h19.2a2.4 2.4 0 0 1 2.4 2.4ZM31.33 21.6a2.4 2.4 0 0 1-2.4 2.4H9.73a2.4 2.4 0 0 1 0-4.8h19.2a2.4 2.4 0 0 1 2.4 2.4ZM0 2.4a2.4 2.4 0 1 0 4.8 0 2.4 2.4 0 0 0-4.8 0ZM0 12a2.4 2.4 0 1 0 4.8 0A2.4 2.4 0 0 0 0 12ZM0 21.6a2.4 2.4 0 1 0 4.8 0 2.4 2.4 0 0 0-4.8 0Z"/></g><defs><clipPath id="a"><path fill="#fff" d="M0 0h31.33v24H0z"/></clipPath></defs></svg>