<svg width="45" height="45" fill="none" xmlns="http://www.w3.org/2000/svg"><path d="M22.5 30.48a1.7 1.7 0 0 1-1.7-1.7V19.7a1.7 1.7 0 1 1 3.4 0v9.07a1.7 1.7 0 0 1-1.7 1.7ZM22.5 37.28a1.7 1.7 0 1 1 0-3.4 1.7 1.7 0 0 1 0 3.4Z" fill="#D0936A"/><path d="M42.9 44.65H2.1a2.27 2.27 0 0 1-2.27-2.27V3.84a2.27 2.27 0 0 1 2.26-2.27h40.82a2.27 2.27 0 0 1 2.26 2.27v38.54a2.27 2.27 0 0 1-2.26 2.27ZM4.37 40.12h36.28V6.1H4.36v34.02Z" fill="#D0936A"/><path d="M42.9 14.6H2.1a1.7 1.7 0 1 1 0-3.4h40.8a1.7 1.7 0 1 1 0 3.4ZM13.42 7.8a1.7 1.7 0 0 1-1.7-1.7V1.57a1.7 1.7 0 1 1 3.4 0V6.1a1.7 1.7 0 0 1-1.7 1.7ZM31.57 7.8a1.7 1.7 0 0 1-1.7-1.7V1.57a1.7 1.7 0 1 1 3.4 0V6.1a1.7 1.7 0 0 1-1.7 1.7Z" fill="#D0936A"/></svg>