<svg width="39" height="39" fill="none" xmlns="http://www.w3.org/2000/svg"><path d="M39 3.25V39H0V3.25h4.88v1.63a3.25 3.25 0 0 0 6.5 0V3.25h16.24v1.63a3.25 3.25 0 0 0 6.5 0V3.25H39ZM35.75 13H3.25v22.75h32.5V13ZM32.5 1.62a1.62 1.62 0 1 0-3.25 0v3.25a1.62 1.62 0 1 0 3.25 0V1.63ZM9.75 4.88a1.62 1.62 0 1 1-3.25 0V1.63a1.62 1.62 0 1 1 3.25 0v3.25Zm10.87 21.91c0-1.3-.68-2.32-1.8-2.75.85-.43 1.35-1.31 1.35-2.44 0-2.2-2.13-3.5-4.2-3.5-2.4 0-4.2 1.5-4.31 4.5h2.67c-.02-1.24.44-2.14 1.67-2.14.73 0 1.51.44 1.51 1.41 0 1.22-1.32 1.4-2.54 1.3v2.07c1.73 0 2.77.11 2.77 1.6 0 1.18-.9 1.7-1.78 1.7-1.33 0-1.88-.99-1.93-2.35h-2.65c-.06 3.07 1.8 4.7 4.61 4.7 2.51 0 4.63-1.54 4.63-4.1Zm7 4.1V18.32h-2.26c-.28 1.88-1.61 2.43-3.52 2.37v2.2h3v7.98h2.79Z" fill="#FFF8F3"/></svg>