<svg width="45" height="45" fill="none" xmlns="http://www.w3.org/2000/svg"><g clip-path="url(#a)" fill="#D0936A"><path d="M42.9 44.65H2.1a2.27 2.27 0 0 1-2.27-2.27V3.84a2.27 2.27 0 0 1 2.26-2.27h40.82a2.27 2.27 0 0 1 2.26 2.27v38.54a2.27 2.27 0 0 1-2.26 2.27ZM4.37 40.12h36.28V6.1H4.36v34.02Z"/><path d="M42.9 14.6H2.1a1.7 1.7 0 1 1 0-3.4h40.8a1.7 1.7 0 1 1 0 3.4ZM13.42 7.8a1.7 1.7 0 0 1-1.7-1.7V1.57a1.7 1.7 0 1 1 3.4 0V6.1a1.7 1.7 0 0 1-1.7 1.7ZM31.57 7.8a1.7 1.7 0 0 1-1.7-1.7V1.57a1.7 1.7 0 1 1 3.4 0V6.1a1.7 1.7 0 0 1-1.7 1.7Z"/><path fill-rule="evenodd" clip-rule="evenodd" d="M12.7 18.06a2.33 2.33 0 0 0-1.19 1.83c0 .26.15.72.32 1.01.65 1.08.38 1.05 10.19 1.05 8.52 0 8.9-.01 9.4-.32 1-.62 1.3-1.79.7-2.76-.66-1.1-.49-1.08-10.16-1.08-7.67 0-8.8.04-9.26.27Zm-.25 7.68c-.49.31-.94 1.13-.94 1.71 0 .6.46 1.4.97 1.71.43.26 1.29.29 9.5.29 10.03 0 9.7.03 10.23-1.1.31-.67.31-1.13 0-1.8-.53-1.14-.2-1.1-10.25-1.1-8.24 0-9.1.04-9.5.3Zm.1 7.53c-1 .62-1.3 1.79-.7 2.76.66 1.1.49 1.08 10.13 1.08 9.65 0 9.48.02 10.14-1.08.6-.97.3-2.14-.7-2.76-.5-.3-.88-.32-9.44-.32-8.55 0-8.94.01-9.44.32Z"/></g><defs><clipPath id="a"><path fill="#fff" d="M0 0h45v45H0z"/></clipPath></defs></svg>