<svg width="39" height="39" fill="none" xmlns="http://www.w3.org/2000/svg"><path d="M32.5 32.5H26V26h6.5v6.5Zm-9.75-16.25h-6.5v6.5h6.5v-6.5Zm9.75 0H26v6.5h6.5v-6.5ZM13 26H6.5v6.5H13V26Zm9.75 0h-6.5v6.5h6.5V26ZM13 16.25H6.5v6.5H13v-6.5Zm26-13V39H0V3.25h4.88v1.63a3.25 3.25 0 0 0 6.5 0V3.25h16.24v1.63a3.25 3.25 0 0 0 6.5 0V3.25H39ZM35.75 13H3.25v22.75h32.5V13ZM32.5 1.62a1.62 1.62 0 1 0-3.25 0v3.25a1.62 1.62 0 1 0 3.25 0V1.63ZM9.75 4.88a1.62 1.62 0 1 1-3.25 0V1.63a1.62 1.62 0 1 1 3.25 0v3.25Z" fill="#FFF8F3"/></svg>