<svg xmlns="http://www.w3.org/2000/svg" viewBox="0 0 512 512" fill="#d0936a">
  <path d="M140 36a12 12 0 0 0-17 0L59 99 36 77a12 12 0 0 0-17 0L4 92a12 12 0 0 0 0 17l47 48a13 13 0 0 0 18 0l15-16 73-72a12 12 0 0 0 0-17zm0 159a12 12 0 0 0-17 0l-64 63-23-22a12 12 0 0 0-17 0L4 252a12 12 0 0 0 0 17l47 48a13 13 0 0 0 18 0l15-16 73-72a12 12 0 0 0 0-17zM64 368c-26 0-49 22-49 48s23 48 49 48a48 48 0 0 0 0-96zm432 16H208a16 16 0 0 0-16 16v32a16 16 0 0 0 16 16h288a16 16 0 0 0 16-16v-32a16 16 0 0 0-16-16zm0-320H208a16 16 0 0 0-16 16v32a16 16 0 0 0 16 16h288a16 16 0 0 0 16-16V80a16 16 0 0 0-16-16zm0 160H208a16 16 0 0 0-16 16v32a16 16 0 0 0 16 16h288a16 16 0 0 0 16-16v-32a16 16 0 0 0-16-16z"/>
</svg>
